<?xml version="1.0" encoding="UTF-8"?>
<svg width="465px" height="784px" viewBox="0 0 465 784" version="1.1" xmlns="http://www.w3.org/2000/svg" xmlns:xlink="http://www.w3.org/1999/xlink">
    <!-- Generator: Sketch 63.1 (92452) - https://sketch.com -->
    <title>Placeholder_Lg</title>
    <desc>Created with Sketch.</desc>
    <g id="Placeholder_Lg" stroke="none" stroke-width="1" fill="none" fill-rule="evenodd">
        <g id="Placeholders-/-Document">
            <g id="Picture">
                <rect id="Frame" fill="#E8E9E9" opacity="0.5" x="0" y="0" width="465" height="784" rx="8"></rect>
                <path d="M165.056,322 L165.056,312.592 L165.088,312.592 L171.648,322 L173.344,322 L173.344,310.672 L172,310.672 L172,320.08 L171.968,320.08 L165.408,310.672 L163.712,310.672 L163.712,322 L165.056,322 Z M179.504,322.192 C180.08,322.192 180.613333,322.096 181.104,321.904 C181.594667,321.712 182.016,321.442667 182.368,321.096 C182.72,320.749333 182.997333,320.336 183.2,319.856 C183.402667,319.376 183.504,318.842667 183.504,318.256 C183.504,317.669333 183.402667,317.136 183.2,316.656 C182.997333,316.176 182.72,315.762667 182.368,315.416 C182.016,315.069333 181.594667,314.8 181.104,314.608 C180.613333,314.416 180.08,314.32 179.504,314.32 C178.928,314.32 178.394667,314.416 177.904,314.608 C177.413333,314.8 176.992,315.069333 176.64,315.416 C176.288,315.762667 176.010667,316.176 175.808,316.656 C175.605333,317.136 175.504,317.669333 175.504,318.256 C175.504,318.842667 175.605333,319.376 175.808,319.856 C176.010667,320.336 176.288,320.749333 176.64,321.096 C176.992,321.442667 177.413333,321.712 177.904,321.904 C178.394667,322.096 178.928,322.192 179.504,322.192 Z M179.504,321.04 C179.098667,321.04 178.733333,320.968 178.408,320.824 C178.082667,320.68 177.802667,320.482667 177.568,320.232 C177.333333,319.981333 177.154667,319.688 177.032,319.352 C176.909333,319.016 176.848,318.650667 176.848,318.256 C176.848,317.861333 176.909333,317.496 177.032,317.16 C177.154667,316.824 177.333333,316.530667 177.568,316.28 C177.802667,316.029333 178.082667,315.832 178.408,315.688 C178.733333,315.544 179.098667,315.472 179.504,315.472 C179.909333,315.472 180.274667,315.544 180.6,315.688 C180.925333,315.832 181.205333,316.029333 181.44,316.28 C181.674667,316.530667 181.853333,316.824 181.976,317.16 C182.098667,317.496 182.16,317.861333 182.16,318.256 C182.16,318.650667 182.098667,319.016 181.976,319.352 C181.853333,319.688 181.674667,319.981333 181.44,320.232 C181.205333,320.482667 180.925333,320.68 180.6,320.824 C180.274667,320.968 179.909333,321.04 179.504,321.04 Z M191.456,322 L191.456,310.672 L190.112,310.672 L190.112,322 L191.456,322 Z M195.296,322 L195.296,318.352 C195.296,317.925333 195.341333,317.536 195.432,317.184 C195.522667,316.832 195.661333,316.528 195.848,316.272 C196.034667,316.016 196.274667,315.818667 196.568,315.68 C196.861333,315.541333 197.210667,315.472 197.616,315.472 C198.128,315.472 198.496,315.645333 198.72,315.992 C198.944,316.338667 199.056,316.928 199.056,317.76 L199.056,317.76 L199.056,322 L200.304,322 L200.304,317.68 C200.304,317.349333 200.354667,317.048 200.456,316.776 C200.557333,316.504 200.696,316.272 200.872,316.08 C201.048,315.888 201.253333,315.738667 201.488,315.632 C201.722667,315.525333 201.973333,315.472 202.24,315.472 C202.602667,315.472 202.901333,315.530667 203.136,315.648 C203.370667,315.765333 203.557333,315.92 203.696,316.112 C203.834667,316.304 203.930667,316.522667 203.984,316.768 C204.037333,317.013333 204.064,317.264 204.064,317.52 L204.064,317.52 L204.064,322 L205.312,322 L205.312,317.456 C205.312,316.976 205.264,316.541333 205.168,316.152 C205.072,315.762667 204.912,315.432 204.688,315.16 C204.464,314.888 204.170667,314.68 203.808,314.536 C203.445333,314.392 202.997333,314.32 202.464,314.32 C201.888,314.32 201.418667,314.445333 201.056,314.696 C200.693333,314.946667 200.373333,315.296 200.096,315.744 C200.032,315.616 199.949333,315.469333 199.848,315.304 C199.746667,315.138667 199.605333,314.984 199.424,314.84 C199.242667,314.696 199.016,314.573333 198.744,314.472 C198.472,314.370667 198.133333,314.32 197.728,314.32 C197.418667,314.32 197.130667,314.36 196.864,314.44 C196.597333,314.52 196.357333,314.626667 196.144,314.76 C195.930667,314.893333 195.746667,315.045333 195.592,315.216 C195.437333,315.386667 195.317333,315.562667 195.232,315.744 L195.232,315.744 L195.2,315.744 C195.2,315.530667 195.194667,315.322667 195.184,315.12 C195.173333,314.917333 195.168,314.714667 195.168,314.512 L195.168,314.512 L193.984,314.512 C193.984,314.757333 193.994667,315.029333 194.016,315.328 C194.037333,315.626667 194.048,315.946667 194.048,316.288 L194.048,316.288 L194.048,322 L195.296,322 Z M210.032,322.192 C210.608,322.192 211.101333,322.069333 211.512,321.824 C211.922667,321.578667 212.250667,321.264 212.496,320.88 L212.496,320.88 L212.528,320.88 C212.528,321.04 212.530667,321.224 212.536,321.432 C212.541333,321.64 212.565333,321.829333 212.608,322 L212.608,322 L213.808,322 C213.776,321.808 213.749333,321.597333 213.728,321.368 C213.706667,321.138667 213.696,320.917333 213.696,320.704 L213.696,320.704 L213.696,317.488 C213.696,316.421333 213.450667,315.626667 212.96,315.104 C212.469333,314.581333 211.669333,314.32 210.56,314.32 C210.016,314.32 209.48,314.413333 208.952,314.6 C208.424,314.786667 207.968,315.077333 207.584,315.472 L207.584,315.472 L208.368,316.288 C208.666667,316.010667 209.010667,315.805333 209.4,315.672 C209.789333,315.538667 210.186667,315.472 210.592,315.472 C211.178667,315.472 211.634667,315.610667 211.96,315.888 C212.285333,316.165333 212.448,316.576 212.448,317.12 L212.448,317.12 L212.448,317.344 L211.968,317.344 C211.509333,317.344 211.005333,317.365333 210.456,317.408 C209.906667,317.450667 209.394667,317.557333 208.92,317.728 C208.445333,317.898667 208.048,318.16 207.728,318.512 C207.408,318.864 207.248,319.349333 207.248,319.968 C207.248,320.330667 207.322667,320.650667 207.472,320.928 C207.621333,321.205333 207.821333,321.437333 208.072,321.624 C208.322667,321.810667 208.616,321.952 208.952,322.048 C209.288,322.144 209.648,322.192 210.032,322.192 Z M210.24,321.136 C209.770667,321.136 209.378667,321.037333 209.064,320.84 C208.749333,320.642667 208.592,320.309333 208.592,319.84 C208.592,319.328 208.826667,318.96 209.296,318.736 C209.765333,318.512 210.4,318.4 211.2,318.4 L211.2,318.4 L212.448,318.4 L212.448,318.88 C212.437333,319.189333 212.384,319.48 212.288,319.752 C212.192,320.024 212.053333,320.261333 211.872,320.464 C211.690667,320.666667 211.464,320.829333 211.192,320.952 C210.92,321.074667 210.602667,321.136 210.24,321.136 Z M219.376,325.84 C220.698667,325.84 221.709333,325.485333 222.408,324.776 C223.106667,324.066667 223.456,323.029333 223.456,321.664 L223.456,321.664 L223.456,314.512 L222.208,314.512 L222.208,315.792 L222.176,315.792 C222.048,315.546667 221.888,315.330667 221.696,315.144 C221.504,314.957333 221.288,314.802667 221.048,314.68 C220.808,314.557333 220.56,314.466667 220.304,314.408 C220.048,314.349333 219.792,314.32 219.536,314.32 C218.938667,314.32 218.394667,314.410667 217.904,314.592 C217.413333,314.773333 216.994667,315.032 216.648,315.368 C216.301333,315.704 216.032,316.117333 215.84,316.608 C215.648,317.098667 215.552,317.648 215.552,318.256 C215.552,318.810667 215.648,319.322667 215.84,319.792 C216.032,320.261333 216.304,320.666667 216.656,321.008 C217.008,321.349333 217.429333,321.616 217.92,321.808 C218.410667,322 218.949333,322.096 219.536,322.096 C220.037333,322.096 220.528,321.984 221.008,321.76 C221.488,321.536 221.877333,321.184 222.176,320.704 L222.176,320.704 L222.208,320.704 L222.208,321.664 C222.208,322.058667 222.165333,322.437333 222.08,322.8 C221.994667,323.162667 221.845333,323.485333 221.632,323.768 C221.418667,324.050667 221.128,324.274667 220.76,324.44 C220.392,324.605333 219.930667,324.688 219.376,324.688 C218.8,324.688 218.290667,324.578667 217.848,324.36 C217.405333,324.141333 216.986667,323.818667 216.592,323.392 L216.592,323.392 L215.696,324.416 C216.229333,324.938667 216.792,325.306667 217.384,325.52 C217.976,325.733333 218.64,325.84 219.376,325.84 Z M219.536,320.944 C219.173333,320.944 218.832,320.874667 218.512,320.736 C218.192,320.597333 217.912,320.408 217.672,320.168 C217.432,319.928 217.242667,319.645333 217.104,319.32 C216.965333,318.994667 216.896,318.64 216.896,318.256 C216.896,317.861333 216.96,317.496 217.088,317.16 C217.216,316.824 217.394667,316.530667 217.624,316.28 C217.853333,316.029333 218.130667,315.832 218.456,315.688 C218.781333,315.544 219.141333,315.472 219.536,315.472 C219.930667,315.472 220.293333,315.538667 220.624,315.672 C220.954667,315.805333 221.237333,315.994667 221.472,316.24 C221.706667,316.485333 221.888,316.776 222.016,317.112 C222.144,317.448 222.208,317.818667 222.208,318.224 C222.208,318.586667 222.149333,318.930667 222.032,319.256 C221.914667,319.581333 221.741333,319.869333 221.512,320.12 C221.282667,320.370667 221.002667,320.570667 220.672,320.72 C220.341333,320.869333 219.962667,320.944 219.536,320.944 Z M229.12,322.192 C229.824,322.192 230.442667,322.077333 230.976,321.848 C231.509333,321.618667 232,321.216 232.448,320.64 L232.448,320.64 L231.504,319.904 C231.205333,320.277333 230.869333,320.56 230.496,320.752 C230.122667,320.944 229.664,321.04 229.12,321.04 C228.778667,321.04 228.464,320.976 228.176,320.848 C227.888,320.72 227.637333,320.546667 227.424,320.328 C227.210667,320.109333 227.037333,319.853333 226.904,319.56 C226.770667,319.266667 226.693333,318.96 226.672,318.64 L226.672,318.64 L232.72,318.64 L232.72,318.24 C232.72,317.621333 232.634667,317.069333 232.464,316.584 C232.293333,316.098667 232.050667,315.688 231.736,315.352 C231.421333,315.016 231.045333,314.76 230.608,314.584 C230.170667,314.408 229.690667,314.32 229.168,314.32 C228.613333,314.32 228.101333,314.416 227.632,314.608 C227.162667,314.8 226.757333,315.069333 226.416,315.416 C226.074667,315.762667 225.808,316.178667 225.616,316.664 C225.424,317.149333 225.328,317.68 225.328,318.256 C225.328,318.8 225.416,319.312 225.592,319.792 C225.768,320.272 226.018667,320.688 226.344,321.04 C226.669333,321.392 227.066667,321.672 227.536,321.88 C228.005333,322.088 228.533333,322.192 229.12,322.192 Z M231.376,317.584 L226.672,317.584 C226.757333,316.944 227.013333,316.432 227.44,316.048 C227.866667,315.664 228.426667,315.472 229.12,315.472 C229.813333,315.472 230.357333,315.664 230.752,316.048 C231.146667,316.432 231.354667,316.944 231.376,317.584 L231.376,317.584 Z M239.536,322 L240.704,319.216 L246.368,319.216 L247.52,322 L249.088,322 L244.272,310.672 L243.008,310.672 L238.016,322 L239.536,322 Z M245.856,317.968 L241.232,317.968 L243.584,312.4 L243.616,312.4 L245.856,317.968 Z M253.776,322 L256.736,314.512 L255.392,314.512 L253.168,320.384 L253.136,320.384 L250.8,314.512 L249.344,314.512 L252.4,322 L253.776,322 Z M260.432,322.192 C261.008,322.192 261.501333,322.069333 261.912,321.824 C262.322667,321.578667 262.650667,321.264 262.896,320.88 L262.896,320.88 L262.928,320.88 C262.928,321.04 262.930667,321.224 262.936,321.432 C262.941333,321.64 262.965333,321.829333 263.008,322 L263.008,322 L264.208,322 C264.176,321.808 264.149333,321.597333 264.128,321.368 C264.106667,321.138667 264.096,320.917333 264.096,320.704 L264.096,320.704 L264.096,317.488 C264.096,316.421333 263.850667,315.626667 263.36,315.104 C262.869333,314.581333 262.069333,314.32 260.96,314.32 C260.416,314.32 259.88,314.413333 259.352,314.6 C258.824,314.786667 258.368,315.077333 257.984,315.472 L257.984,315.472 L258.768,316.288 C259.066667,316.010667 259.410667,315.805333 259.8,315.672 C260.189333,315.538667 260.586667,315.472 260.992,315.472 C261.578667,315.472 262.034667,315.610667 262.36,315.888 C262.685333,316.165333 262.848,316.576 262.848,317.12 L262.848,317.12 L262.848,317.344 L262.368,317.344 C261.909333,317.344 261.405333,317.365333 260.856,317.408 C260.306667,317.450667 259.794667,317.557333 259.32,317.728 C258.845333,317.898667 258.448,318.16 258.128,318.512 C257.808,318.864 257.648,319.349333 257.648,319.968 C257.648,320.330667 257.722667,320.650667 257.872,320.928 C258.021333,321.205333 258.221333,321.437333 258.472,321.624 C258.722667,321.810667 259.016,321.952 259.352,322.048 C259.688,322.144 260.048,322.192 260.432,322.192 Z M260.64,321.136 C260.170667,321.136 259.778667,321.037333 259.464,320.84 C259.149333,320.642667 258.992,320.309333 258.992,319.84 C258.992,319.328 259.226667,318.96 259.696,318.736 C260.165333,318.512 260.8,318.4 261.6,318.4 L261.6,318.4 L262.848,318.4 L262.848,318.88 C262.837333,319.189333 262.784,319.48 262.688,319.752 C262.592,320.024 262.453333,320.261333 262.272,320.464 C262.090667,320.666667 261.864,320.829333 261.592,320.952 C261.32,321.074667 261.002667,321.136 260.64,321.136 Z M267.12,312.496 C267.386667,312.496 267.605333,312.410667 267.776,312.24 C267.946667,312.069333 268.032,311.850667 268.032,311.584 C268.032,311.338667 267.944,311.125333 267.768,310.944 C267.592,310.762667 267.376,310.672 267.12,310.672 C266.864,310.672 266.648,310.762667 266.472,310.944 C266.296,311.125333 266.208,311.338667 266.208,311.584 C266.208,311.850667 266.293333,312.069333 266.464,312.24 C266.634667,312.410667 266.853333,312.496 267.12,312.496 Z M267.744,322 L267.744,314.512 L266.496,314.512 L266.496,322 L267.744,322 Z M271.584,322 L271.584,309.904 L270.336,309.904 L270.336,322 L271.584,322 Z M276.416,322.192 C276.992,322.192 277.485333,322.069333 277.896,321.824 C278.306667,321.578667 278.634667,321.264 278.88,320.88 L278.88,320.88 L278.912,320.88 C278.912,321.04 278.914667,321.224 278.92,321.432 C278.925333,321.64 278.949333,321.829333 278.992,322 L278.992,322 L280.192,322 C280.16,321.808 280.133333,321.597333 280.112,321.368 C280.090667,321.138667 280.08,320.917333 280.08,320.704 L280.08,320.704 L280.08,317.488 C280.08,316.421333 279.834667,315.626667 279.344,315.104 C278.853333,314.581333 278.053333,314.32 276.944,314.32 C276.4,314.32 275.864,314.413333 275.336,314.6 C274.808,314.786667 274.352,315.077333 273.968,315.472 L273.968,315.472 L274.752,316.288 C275.050667,316.010667 275.394667,315.805333 275.784,315.672 C276.173333,315.538667 276.570667,315.472 276.976,315.472 C277.562667,315.472 278.018667,315.610667 278.344,315.888 C278.669333,316.165333 278.832,316.576 278.832,317.12 L278.832,317.12 L278.832,317.344 L278.352,317.344 C277.893333,317.344 277.389333,317.365333 276.84,317.408 C276.290667,317.450667 275.778667,317.557333 275.304,317.728 C274.829333,317.898667 274.432,318.16 274.112,318.512 C273.792,318.864 273.632,319.349333 273.632,319.968 C273.632,320.330667 273.706667,320.650667 273.856,320.928 C274.005333,321.205333 274.205333,321.437333 274.456,321.624 C274.706667,321.810667 275,321.952 275.336,322.048 C275.672,322.144 276.032,322.192 276.416,322.192 Z M276.624,321.136 C276.154667,321.136 275.762667,321.037333 275.448,320.84 C275.133333,320.642667 274.976,320.309333 274.976,319.84 C274.976,319.328 275.210667,318.96 275.68,318.736 C276.149333,318.512 276.784,318.4 277.584,318.4 L277.584,318.4 L278.832,318.4 L278.832,318.88 C278.821333,319.189333 278.768,319.48 278.672,319.752 C278.576,320.024 278.437333,320.261333 278.256,320.464 C278.074667,320.666667 277.848,320.829333 277.576,320.952 C277.304,321.074667 276.986667,321.136 276.624,321.136 Z M286.464,322.192 C286.986667,322.192 287.477333,322.093333 287.936,321.896 C288.394667,321.698667 288.792,321.424 289.128,321.072 C289.464,320.72 289.728,320.304 289.92,319.824 C290.112,319.344 290.208,318.821333 290.208,318.256 C290.208,317.690667 290.112,317.168 289.92,316.688 C289.728,316.208 289.461333,315.792 289.12,315.44 C288.778667,315.088 288.365333,314.813333 287.88,314.616 C287.394667,314.418667 286.858667,314.32 286.272,314.32 C285.728,314.32 285.229333,314.432 284.776,314.656 C284.322667,314.88 283.925333,315.194667 283.584,315.6 L283.584,315.6 L283.552,315.6 L283.552,309.904 L282.304,309.904 L282.304,322 L283.552,322 L283.552,320.672 L283.584,320.672 C283.818667,321.098667 284.189333,321.458667 284.696,321.752 C285.202667,322.045333 285.792,322.192 286.464,322.192 Z M286.208,321.04 C285.802667,321.04 285.437333,320.968 285.112,320.824 C284.786667,320.68 284.506667,320.482667 284.272,320.232 C284.037333,319.981333 283.858667,319.688 283.736,319.352 C283.613333,319.016 283.552,318.650667 283.552,318.256 C283.552,317.861333 283.613333,317.496 283.736,317.16 C283.858667,316.824 284.037333,316.530667 284.272,316.28 C284.506667,316.029333 284.786667,315.832 285.112,315.688 C285.437333,315.544 285.802667,315.472 286.208,315.472 C286.613333,315.472 286.978667,315.544 287.304,315.688 C287.629333,315.832 287.909333,316.029333 288.144,316.28 C288.378667,316.530667 288.557333,316.824 288.68,317.16 C288.802667,317.496 288.864,317.861333 288.864,318.256 C288.864,318.650667 288.802667,319.016 288.68,319.352 C288.557333,319.688 288.378667,319.981333 288.144,320.232 C287.909333,320.482667 287.629333,320.68 287.304,320.824 C286.978667,320.968 286.613333,321.04 286.208,321.04 Z M293.504,322 L293.504,309.904 L292.256,309.904 L292.256,322 L293.504,322 Z M299.344,322.192 C300.048,322.192 300.666667,322.077333 301.2,321.848 C301.733333,321.618667 302.224,321.216 302.672,320.64 L302.672,320.64 L301.728,319.904 C301.429333,320.277333 301.093333,320.56 300.72,320.752 C300.346667,320.944 299.888,321.04 299.344,321.04 C299.002667,321.04 298.688,320.976 298.4,320.848 C298.112,320.72 297.861333,320.546667 297.648,320.328 C297.434667,320.109333 297.261333,319.853333 297.128,319.56 C296.994667,319.266667 296.917333,318.96 296.896,318.64 L296.896,318.64 L302.944,318.64 L302.944,318.24 C302.944,317.621333 302.858667,317.069333 302.688,316.584 C302.517333,316.098667 302.274667,315.688 301.96,315.352 C301.645333,315.016 301.269333,314.76 300.832,314.584 C300.394667,314.408 299.914667,314.32 299.392,314.32 C298.837333,314.32 298.325333,314.416 297.856,314.608 C297.386667,314.8 296.981333,315.069333 296.64,315.416 C296.298667,315.762667 296.032,316.178667 295.84,316.664 C295.648,317.149333 295.552,317.68 295.552,318.256 C295.552,318.8 295.64,319.312 295.816,319.792 C295.992,320.272 296.242667,320.688 296.568,321.04 C296.893333,321.392 297.290667,321.672 297.76,321.88 C298.229333,322.088 298.757333,322.192 299.344,322.192 Z M301.6,317.584 L296.896,317.584 C296.981333,316.944 297.237333,316.432 297.664,316.048 C298.090667,315.664 298.650667,315.472 299.344,315.472 C300.037333,315.472 300.581333,315.664 300.976,316.048 C301.370667,316.432 301.578667,316.944 301.6,317.584 L301.6,317.584 Z" id="NoImageAvailable" fill="#22232B" fill-rule="nonzero" opacity="0.25"></path>
                <path d="M234.053988,356.609668 C227.934163,360.140447 222.05164,363.533725 216.169794,366.927678 C213.720715,368.340531 211.259466,369.733113 208.832021,371.182114 C208.192117,371.564212 207.552212,372.038204 207.095524,372.615237 C206.055046,373.930791 206.419112,375.57101 208.101185,376.588926 C211.542065,378.67138 215.103963,378.609892 218.562759,376.649737 C224.987155,373.008822 231.362536,369.281419 237.759551,365.591854 C239.770196,364.432383 241.736559,363.184059 243.806022,362.141481 C248.874889,359.587063 254.046858,359.561049 259.178262,361.937763 C261.713541,363.112437 263.007885,365.02597 262.984561,368.042555 C262.879093,381.848439 262.857459,395.656013 263,409.460883 C263.031548,412.591659 261.695963,414.42884 259.191784,415.860949 C252.342137,419.779232 245.517842,423.741097 238.683069,427.685732 C237.805862,428.191818 236.85564,428.604998 236.068013,429.224599 C234.710794,430.292853 233.526988,430.220555 232.137317,429.233721 C231.340226,428.667499 230.931201,428.194521 230.934243,427.158699 C230.973117,413.310247 230.971765,399.461457 230.936271,385.613005 C230.933905,384.593062 231.256054,384.060286 232.14036,383.555551 C240.056852,379.038275 247.943259,374.46762 255.835413,369.907439 C257.166265,369.138174 258.61205,368.363842 258.41734,366.517539 C258.219251,364.638466 256.705858,363.884066 255.148183,363.386764 C252.213682,362.44993 249.31907,362.553309 246.587392,364.125623 C238.467739,368.797968 230.36296,373.496665 222.226406,378.139955 C221.412412,378.604487 221.29748,379.160912 221.298494,379.975447 C221.316748,393.866129 221.296804,407.75715 221.34041,421.647832 C221.343791,422.72487 220.983781,423.233997 220.031192,423.592109 C215.485269,425.300235 210.950162,425.363411 206.457986,423.481973 C203.519767,422.251217 201.96412,420.251196 202.000628,416.76535 C202.145646,402.875681 202.097645,388.983985 202.025643,375.093302 C202.013136,372.63821 202.994457,370.941233 204.99699,369.776018 C213.422566,364.874279 221.868086,360.007337 230.319353,355.149518 C230.590121,354.993773 231.062021,354.945124 231.331437,355.073841 C232.19546,355.487359 233.008101,356.007634 234.053988,356.609668" id="Fill-1" fill="#DEE0E0"></path>
            </g>
        </g>
    </g>
</svg>