<?xml version="1.0" encoding="UTF-8"?>
<svg width="465px" height="784px" viewBox="0 0 465 784" version="1.1" xmlns="http://www.w3.org/2000/svg" xmlns:xlink="http://www.w3.org/1999/xlink">
    <!-- Generator: Sketch 63.1 (92452) - https://sketch.com -->
    <title>Cover / Placeholder</title>
    <desc>Created with Sketch.</desc>
    <g id="Cover-/-Placeholder" stroke="none" stroke-width="1" fill="none" fill-rule="evenodd">
        <g id="Placeholders-/-Document">
            <g id="Picture">
                <rect id="Frame" fill="#E8E9E9" opacity="0.5" x="0" y="0" width="465" height="784" rx="8"></rect>
                <path d="M220.4,355 L212.714,363.333333 L199.4,363.333333 C194.759,363.333333 191,367.0625 191,371.666667 L191,421.666667 C191,426.270831 194.759,430 199.4,430 L266.6,430 C271.241,430 275,426.270831 275,421.666667 L275,371.666667 C275,367.0625 271.241,363.333333 266.6,363.333333 L253.286,363.333333 L245.6,355 L220.4,355 L220.4,355 Z M233,417.5 C221.408,417.5 212,408.166667 212,396.666667 C212,385.166667 221.408,375.833333 233,375.833333 C244.592,375.833333 254,385.166667 254,396.666667 C254,408.166667 244.592,417.5 233,417.5 L233,417.5 Z M246.44,396.666667 C246.44,404.030458 240.422702,410 233,410 C225.577298,410 219.56,404.030458 219.56,396.666667 C219.56,389.302875 225.577298,383.333333 233,383.333333 C240.422702,383.333333 246.44,389.302875 246.44,396.666667 L246.44,396.666667 Z" id="Camera-Icon" fill="#22232B" opacity="0.1"></path>
                <path d="M157.552,322.288 C158.458667,322.288 159.272,322.128 159.992,321.808 C160.712,321.488 161.328,320.986667 161.84,320.304 L161.84,320.304 L160.832,319.456 C160.426667,319.968 159.952,320.36 159.408,320.632 C158.864,320.904 158.245333,321.04 157.552,321.04 C156.912,321.04 156.328,320.917333 155.8,320.672 C155.272,320.426667 154.818667,320.093333 154.44,319.672 C154.061333,319.250667 153.765333,318.754667 153.552,318.184 C153.338667,317.613333 153.232,316.997333 153.232,316.336 C153.232,315.717333 153.338667,315.122667 153.552,314.552 C153.765333,313.981333 154.064,313.48 154.448,313.048 C154.832,312.616 155.288,312.272 155.816,312.016 C156.344,311.76 156.922667,311.632 157.552,311.632 C158.096,311.632 158.618667,311.746667 159.12,311.976 C159.621333,312.205333 160.042667,312.549333 160.384,313.008 L160.384,313.008 L161.552,312.16 C161.072,311.530667 160.477333,311.077333 159.768,310.8 C159.058667,310.522667 158.32,310.384 157.552,310.384 C156.709333,310.384 155.936,310.538667 155.232,310.848 C154.528,311.157333 153.92,311.578667 153.408,312.112 C152.896,312.645333 152.498667,313.274667 152.216,314 C151.933333,314.725333 151.792,315.504 151.792,316.336 C151.792,317.2 151.938667,317.994667 152.232,318.72 C152.525333,319.445333 152.930667,320.072 153.448,320.6 C153.965333,321.128 154.576,321.541333 155.28,321.84 C155.984,322.138667 156.741333,322.288 157.552,322.288 Z M164.848,322 L164.848,309.904 L163.6,309.904 L163.6,322 L164.848,322 Z M168.064,312.496 C168.330667,312.496 168.549333,312.410667 168.72,312.24 C168.890667,312.069333 168.976,311.850667 168.976,311.584 C168.976,311.338667 168.888,311.125333 168.712,310.944 C168.536,310.762667 168.32,310.672 168.064,310.672 C167.808,310.672 167.592,310.762667 167.416,310.944 C167.24,311.125333 167.152,311.338667 167.152,311.584 C167.152,311.850667 167.237333,312.069333 167.408,312.24 C167.578667,312.410667 167.797333,312.496 168.064,312.496 Z M168.688,322 L168.688,314.512 L167.44,314.512 L167.44,322 L168.688,322 Z M174.608,322.192 C175.152,322.192 175.669333,322.096 176.16,321.904 C176.650667,321.712 177.077333,321.408 177.44,320.992 L177.44,320.992 L176.512,320.112 C176.064,320.730667 175.429333,321.04 174.608,321.04 C174.224,321.04 173.877333,320.968 173.568,320.824 C173.258667,320.68 172.994667,320.48 172.776,320.224 C172.557333,319.968 172.386667,319.672 172.264,319.336 C172.141333,319 172.08,318.64 172.08,318.256 C172.08,317.872 172.133333,317.512 172.24,317.176 C172.346667,316.84 172.504,316.544 172.712,316.288 C172.92,316.032 173.184,315.832 173.504,315.688 C173.824,315.544 174.192,315.472 174.608,315.472 C174.981333,315.472 175.322667,315.544 175.632,315.688 C175.941333,315.832 176.229333,316.064 176.496,316.384 L176.496,316.384 L177.488,315.504 C177.114667,315.098667 176.68,314.8 176.184,314.608 C175.688,314.416 175.162667,314.32 174.608,314.32 C174.032,314.32 173.506667,314.418667 173.032,314.616 C172.557333,314.813333 172.149333,315.088 171.808,315.44 C171.466667,315.792 171.202667,316.208 171.016,316.688 C170.829333,317.168 170.736,317.690667 170.736,318.256 C170.736,318.832 170.829333,319.36 171.016,319.84 C171.202667,320.32 171.464,320.736 171.8,321.088 C172.136,321.44 172.544,321.712 173.024,321.904 C173.504,322.096 174.032,322.192 174.608,322.192 Z M180.128,322 L180.128,318.064 L183.84,322 L185.68,322 L181.696,317.92 L185.312,314.512 L183.536,314.512 L180.128,317.808 L180.128,309.904 L178.88,309.904 L178.88,322 L180.128,322 Z M195.408,322 L195.408,311.92 L199.152,311.92 L199.152,310.672 L190.32,310.672 L190.32,311.92 L194.064,311.92 L194.064,322 L195.408,322 Z M204.08,322.192 C204.656,322.192 205.189333,322.096 205.68,321.904 C206.170667,321.712 206.592,321.442667 206.944,321.096 C207.296,320.749333 207.573333,320.336 207.776,319.856 C207.978667,319.376 208.08,318.842667 208.08,318.256 C208.08,317.669333 207.978667,317.136 207.776,316.656 C207.573333,316.176 207.296,315.762667 206.944,315.416 C206.592,315.069333 206.170667,314.8 205.68,314.608 C205.189333,314.416 204.656,314.32 204.08,314.32 C203.504,314.32 202.970667,314.416 202.48,314.608 C201.989333,314.8 201.568,315.069333 201.216,315.416 C200.864,315.762667 200.586667,316.176 200.384,316.656 C200.181333,317.136 200.08,317.669333 200.08,318.256 C200.08,318.842667 200.181333,319.376 200.384,319.856 C200.586667,320.336 200.864,320.749333 201.216,321.096 C201.568,321.442667 201.989333,321.712 202.48,321.904 C202.970667,322.096 203.504,322.192 204.08,322.192 Z M204.08,321.04 C203.674667,321.04 203.309333,320.968 202.984,320.824 C202.658667,320.68 202.378667,320.482667 202.144,320.232 C201.909333,319.981333 201.730667,319.688 201.608,319.352 C201.485333,319.016 201.424,318.650667 201.424,318.256 C201.424,317.861333 201.485333,317.496 201.608,317.16 C201.730667,316.824 201.909333,316.530667 202.144,316.28 C202.378667,316.029333 202.658667,315.832 202.984,315.688 C203.309333,315.544 203.674667,315.472 204.08,315.472 C204.485333,315.472 204.850667,315.544 205.176,315.688 C205.501333,315.832 205.781333,316.029333 206.016,316.28 C206.250667,316.530667 206.429333,316.824 206.552,317.16 C206.674667,317.496 206.736,317.861333 206.736,318.256 C206.736,318.650667 206.674667,319.016 206.552,319.352 C206.429333,319.688 206.250667,319.981333 206.016,320.232 C205.781333,320.482667 205.501333,320.68 205.176,320.824 C204.850667,320.968 204.485333,321.04 204.08,321.04 Z M218.912,322.288 C219.690667,322.288 220.352,322.162667 220.896,321.912 C221.44,321.661333 221.88,321.325333 222.216,320.904 C222.552,320.482667 222.797333,319.994667 222.952,319.44 C223.106667,318.885333 223.184,318.298667 223.184,317.68 L223.184,317.68 L223.184,310.672 L221.84,310.672 L221.84,317.488 C221.84,317.946667 221.792,318.389333 221.696,318.816 C221.6,319.242667 221.44,319.621333 221.216,319.952 C220.992,320.282667 220.693333,320.546667 220.32,320.744 C219.946667,320.941333 219.477333,321.04 218.912,321.04 C218.346667,321.04 217.877333,320.941333 217.504,320.744 C217.130667,320.546667 216.832,320.282667 216.608,319.952 C216.384,319.621333 216.224,319.242667 216.128,318.816 C216.032,318.389333 215.984,317.946667 215.984,317.488 L215.984,317.488 L215.984,310.672 L214.64,310.672 L214.64,317.68 C214.64,318.298667 214.717333,318.885333 214.872,319.44 C215.026667,319.994667 215.272,320.482667 215.608,320.904 C215.944,321.325333 216.384,321.661333 216.928,321.912 C217.472,322.162667 218.133333,322.288 218.912,322.288 Z M226.912,325.648 L226.912,320.672 L226.944,320.672 C227.178667,321.098667 227.549333,321.458667 228.056,321.752 C228.562667,322.045333 229.152,322.192 229.824,322.192 C230.346667,322.192 230.837333,322.093333 231.296,321.896 C231.754667,321.698667 232.152,321.424 232.488,321.072 C232.824,320.72 233.088,320.304 233.28,319.824 C233.472,319.344 233.568,318.821333 233.568,318.256 C233.568,317.690667 233.472,317.168 233.28,316.688 C233.088,316.208 232.821333,315.792 232.48,315.44 C232.138667,315.088 231.725333,314.813333 231.24,314.616 C230.754667,314.418667 230.218667,314.32 229.632,314.32 C229.088,314.32 228.589333,314.432 228.136,314.656 C227.682667,314.88 227.285333,315.194667 226.944,315.6 L226.944,315.6 L226.912,315.6 L226.912,314.512 L225.664,314.512 L225.664,325.648 L226.912,325.648 Z M229.568,321.04 C229.162667,321.04 228.797333,320.968 228.472,320.824 C228.146667,320.68 227.866667,320.482667 227.632,320.232 C227.397333,319.981333 227.218667,319.688 227.096,319.352 C226.973333,319.016 226.912,318.650667 226.912,318.256 C226.912,317.861333 226.973333,317.496 227.096,317.16 C227.218667,316.824 227.397333,316.530667 227.632,316.28 C227.866667,316.029333 228.146667,315.832 228.472,315.688 C228.797333,315.544 229.162667,315.472 229.568,315.472 C229.973333,315.472 230.338667,315.544 230.664,315.688 C230.989333,315.832 231.269333,316.029333 231.504,316.28 C231.738667,316.530667 231.917333,316.824 232.04,317.16 C232.162667,317.496 232.224,317.861333 232.224,318.256 C232.224,318.650667 232.162667,319.016 232.04,319.352 C231.917333,319.688 231.738667,319.981333 231.504,320.232 C231.269333,320.482667 230.989333,320.68 230.664,320.824 C230.338667,320.968 229.973333,321.04 229.568,321.04 Z M236.864,322 L236.864,309.904 L235.616,309.904 L235.616,322 L236.864,322 Z M242.912,322.192 C243.488,322.192 244.021333,322.096 244.512,321.904 C245.002667,321.712 245.424,321.442667 245.776,321.096 C246.128,320.749333 246.405333,320.336 246.608,319.856 C246.810667,319.376 246.912,318.842667 246.912,318.256 C246.912,317.669333 246.810667,317.136 246.608,316.656 C246.405333,316.176 246.128,315.762667 245.776,315.416 C245.424,315.069333 245.002667,314.8 244.512,314.608 C244.021333,314.416 243.488,314.32 242.912,314.32 C242.336,314.32 241.802667,314.416 241.312,314.608 C240.821333,314.8 240.4,315.069333 240.048,315.416 C239.696,315.762667 239.418667,316.176 239.216,316.656 C239.013333,317.136 238.912,317.669333 238.912,318.256 C238.912,318.842667 239.013333,319.376 239.216,319.856 C239.418667,320.336 239.696,320.749333 240.048,321.096 C240.4,321.442667 240.821333,321.712 241.312,321.904 C241.802667,322.096 242.336,322.192 242.912,322.192 Z M242.912,321.04 C242.506667,321.04 242.141333,320.968 241.816,320.824 C241.490667,320.68 241.210667,320.482667 240.976,320.232 C240.741333,319.981333 240.562667,319.688 240.44,319.352 C240.317333,319.016 240.256,318.650667 240.256,318.256 C240.256,317.861333 240.317333,317.496 240.44,317.16 C240.562667,316.824 240.741333,316.530667 240.976,316.28 C241.210667,316.029333 241.490667,315.832 241.816,315.688 C242.141333,315.544 242.506667,315.472 242.912,315.472 C243.317333,315.472 243.682667,315.544 244.008,315.688 C244.333333,315.832 244.613333,316.029333 244.848,316.28 C245.082667,316.530667 245.261333,316.824 245.384,317.16 C245.506667,317.496 245.568,317.861333 245.568,318.256 C245.568,318.650667 245.506667,319.016 245.384,319.352 C245.261333,319.688 245.082667,319.981333 244.848,320.232 C244.613333,320.482667 244.333333,320.68 244.008,320.824 C243.682667,320.968 243.317333,321.04 242.912,321.04 Z M251.2,322.192 C251.776,322.192 252.269333,322.069333 252.68,321.824 C253.090667,321.578667 253.418667,321.264 253.664,320.88 L253.664,320.88 L253.696,320.88 C253.696,321.04 253.698667,321.224 253.704,321.432 C253.709333,321.64 253.733333,321.829333 253.776,322 L253.776,322 L254.976,322 C254.944,321.808 254.917333,321.597333 254.896,321.368 C254.874667,321.138667 254.864,320.917333 254.864,320.704 L254.864,320.704 L254.864,317.488 C254.864,316.421333 254.618667,315.626667 254.128,315.104 C253.637333,314.581333 252.837333,314.32 251.728,314.32 C251.184,314.32 250.648,314.413333 250.12,314.6 C249.592,314.786667 249.136,315.077333 248.752,315.472 L248.752,315.472 L249.536,316.288 C249.834667,316.010667 250.178667,315.805333 250.568,315.672 C250.957333,315.538667 251.354667,315.472 251.76,315.472 C252.346667,315.472 252.802667,315.610667 253.128,315.888 C253.453333,316.165333 253.616,316.576 253.616,317.12 L253.616,317.12 L253.616,317.344 L253.136,317.344 C252.677333,317.344 252.173333,317.365333 251.624,317.408 C251.074667,317.450667 250.562667,317.557333 250.088,317.728 C249.613333,317.898667 249.216,318.16 248.896,318.512 C248.576,318.864 248.416,319.349333 248.416,319.968 C248.416,320.330667 248.490667,320.650667 248.64,320.928 C248.789333,321.205333 248.989333,321.437333 249.24,321.624 C249.490667,321.810667 249.784,321.952 250.12,322.048 C250.456,322.144 250.816,322.192 251.2,322.192 Z M251.408,321.136 C250.938667,321.136 250.546667,321.037333 250.232,320.84 C249.917333,320.642667 249.76,320.309333 249.76,319.84 C249.76,319.328 249.994667,318.96 250.464,318.736 C250.933333,318.512 251.568,318.4 252.368,318.4 L252.368,318.4 L253.616,318.4 L253.616,318.88 C253.605333,319.189333 253.552,319.48 253.456,319.752 C253.36,320.024 253.221333,320.261333 253.04,320.464 C252.858667,320.666667 252.632,320.829333 252.36,320.952 C252.088,321.074667 251.770667,321.136 251.408,321.136 Z M260.464,322.192 C261.136,322.192 261.725333,322.045333 262.232,321.752 C262.738667,321.458667 263.109333,321.098667 263.344,320.672 L263.344,320.672 L263.376,320.672 L263.376,322 L264.624,322 L264.624,309.904 L263.376,309.904 L263.376,315.6 L263.344,315.6 C263.002667,315.194667 262.605333,314.88 262.152,314.656 C261.698667,314.432 261.2,314.32 260.656,314.32 C260.069333,314.32 259.533333,314.418667 259.048,314.616 C258.562667,314.813333 258.149333,315.088 257.808,315.44 C257.466667,315.792 257.2,316.208 257.008,316.688 C256.816,317.168 256.72,317.690667 256.72,318.256 C256.72,318.821333 256.816,319.344 257.008,319.824 C257.2,320.304 257.464,320.72 257.8,321.072 C258.136,321.424 258.533333,321.698667 258.992,321.896 C259.450667,322.093333 259.941333,322.192 260.464,322.192 Z M260.72,321.04 C260.314667,321.04 259.949333,320.968 259.624,320.824 C259.298667,320.68 259.018667,320.482667 258.784,320.232 C258.549333,319.981333 258.370667,319.688 258.248,319.352 C258.125333,319.016 258.064,318.650667 258.064,318.256 C258.064,317.861333 258.125333,317.496 258.248,317.16 C258.370667,316.824 258.549333,316.530667 258.784,316.28 C259.018667,316.029333 259.298667,315.832 259.624,315.688 C259.949333,315.544 260.314667,315.472 260.72,315.472 C261.125333,315.472 261.490667,315.544 261.816,315.688 C262.141333,315.832 262.421333,316.029333 262.656,316.28 C262.890667,316.530667 263.069333,316.824 263.192,317.16 C263.314667,317.496 263.376,317.861333 263.376,318.256 C263.376,318.650667 263.314667,319.016 263.192,319.352 C263.069333,319.688 262.890667,319.981333 262.656,320.232 C262.421333,320.482667 262.141333,320.68 261.816,320.824 C261.490667,320.968 261.125333,321.04 260.72,321.04 Z M272.944,322 L272.944,310.672 L271.6,310.672 L271.6,322 L272.944,322 Z M276.784,322 L276.784,318.352 C276.784,317.925333 276.829333,317.536 276.92,317.184 C277.010667,316.832 277.149333,316.528 277.336,316.272 C277.522667,316.016 277.762667,315.818667 278.056,315.68 C278.349333,315.541333 278.698667,315.472 279.104,315.472 C279.616,315.472 279.984,315.645333 280.208,315.992 C280.432,316.338667 280.544,316.928 280.544,317.76 L280.544,317.76 L280.544,322 L281.792,322 L281.792,317.68 C281.792,317.349333 281.842667,317.048 281.944,316.776 C282.045333,316.504 282.184,316.272 282.36,316.08 C282.536,315.888 282.741333,315.738667 282.976,315.632 C283.210667,315.525333 283.461333,315.472 283.728,315.472 C284.090667,315.472 284.389333,315.530667 284.624,315.648 C284.858667,315.765333 285.045333,315.92 285.184,316.112 C285.322667,316.304 285.418667,316.522667 285.472,316.768 C285.525333,317.013333 285.552,317.264 285.552,317.52 L285.552,317.52 L285.552,322 L286.8,322 L286.8,317.456 C286.8,316.976 286.752,316.541333 286.656,316.152 C286.56,315.762667 286.4,315.432 286.176,315.16 C285.952,314.888 285.658667,314.68 285.296,314.536 C284.933333,314.392 284.485333,314.32 283.952,314.32 C283.376,314.32 282.906667,314.445333 282.544,314.696 C282.181333,314.946667 281.861333,315.296 281.584,315.744 C281.52,315.616 281.437333,315.469333 281.336,315.304 C281.234667,315.138667 281.093333,314.984 280.912,314.84 C280.730667,314.696 280.504,314.573333 280.232,314.472 C279.96,314.370667 279.621333,314.32 279.216,314.32 C278.906667,314.32 278.618667,314.36 278.352,314.44 C278.085333,314.52 277.845333,314.626667 277.632,314.76 C277.418667,314.893333 277.234667,315.045333 277.08,315.216 C276.925333,315.386667 276.805333,315.562667 276.72,315.744 L276.72,315.744 L276.688,315.744 C276.688,315.530667 276.682667,315.322667 276.672,315.12 C276.661333,314.917333 276.656,314.714667 276.656,314.512 L276.656,314.512 L275.472,314.512 C275.472,314.757333 275.482667,315.029333 275.504,315.328 L275.521778,315.633778 C275.531259,315.84237 275.536,316.060444 275.536,316.288 L275.536,316.288 L275.536,322 L276.784,322 Z M291.52,322.192 C292.096,322.192 292.589333,322.069333 293,321.824 C293.410667,321.578667 293.738667,321.264 293.984,320.88 L293.984,320.88 L294.016,320.88 C294.016,321.04 294.018667,321.224 294.024,321.432 C294.029333,321.64 294.053333,321.829333 294.096,322 L294.096,322 L295.296,322 C295.264,321.808 295.237333,321.597333 295.216,321.368 C295.194667,321.138667 295.184,320.917333 295.184,320.704 L295.184,320.704 L295.184,317.488 C295.184,316.421333 294.938667,315.626667 294.448,315.104 C293.957333,314.581333 293.157333,314.32 292.048,314.32 C291.504,314.32 290.968,314.413333 290.44,314.6 C289.912,314.786667 289.456,315.077333 289.072,315.472 L289.072,315.472 L289.856,316.288 C290.154667,316.010667 290.498667,315.805333 290.888,315.672 C291.277333,315.538667 291.674667,315.472 292.08,315.472 C292.666667,315.472 293.122667,315.610667 293.448,315.888 C293.773333,316.165333 293.936,316.576 293.936,317.12 L293.936,317.12 L293.936,317.344 L293.456,317.344 C292.997333,317.344 292.493333,317.365333 291.944,317.408 C291.394667,317.450667 290.882667,317.557333 290.408,317.728 C289.933333,317.898667 289.536,318.16 289.216,318.512 C288.896,318.864 288.736,319.349333 288.736,319.968 C288.736,320.330667 288.810667,320.650667 288.96,320.928 C289.109333,321.205333 289.309333,321.437333 289.56,321.624 C289.810667,321.810667 290.104,321.952 290.44,322.048 C290.776,322.144 291.136,322.192 291.52,322.192 Z M291.728,321.136 C291.258667,321.136 290.866667,321.037333 290.552,320.84 C290.237333,320.642667 290.08,320.309333 290.08,319.84 C290.08,319.328 290.314667,318.96 290.784,318.736 C291.253333,318.512 291.888,318.4 292.688,318.4 L292.688,318.4 L293.936,318.4 L293.936,318.88 C293.925333,319.189333 293.872,319.48 293.776,319.752 C293.68,320.024 293.541333,320.261333 293.36,320.464 C293.178667,320.666667 292.952,320.829333 292.68,320.952 C292.408,321.074667 292.090667,321.136 291.728,321.136 Z M300.864,325.84 C302.186667,325.84 303.197333,325.485333 303.896,324.776 C304.594667,324.066667 304.944,323.029333 304.944,321.664 L304.944,321.664 L304.944,314.512 L303.696,314.512 L303.696,315.792 L303.664,315.792 C303.536,315.546667 303.376,315.330667 303.184,315.144 C302.992,314.957333 302.776,314.802667 302.536,314.68 C302.296,314.557333 302.048,314.466667 301.792,314.408 C301.536,314.349333 301.28,314.32 301.024,314.32 C300.426667,314.32 299.882667,314.410667 299.392,314.592 C298.901333,314.773333 298.482667,315.032 298.136,315.368 C297.789333,315.704 297.52,316.117333 297.328,316.608 C297.136,317.098667 297.04,317.648 297.04,318.256 C297.04,318.810667 297.136,319.322667 297.328,319.792 C297.52,320.261333 297.792,320.666667 298.144,321.008 C298.496,321.349333 298.917333,321.616 299.408,321.808 C299.898667,322 300.437333,322.096 301.024,322.096 C301.525333,322.096 302.016,321.984 302.496,321.76 C302.976,321.536 303.365333,321.184 303.664,320.704 L303.664,320.704 L303.696,320.704 L303.696,321.664 C303.696,322.058667 303.653333,322.437333 303.568,322.8 C303.482667,323.162667 303.333333,323.485333 303.12,323.768 C302.906667,324.050667 302.616,324.274667 302.248,324.44 C301.88,324.605333 301.418667,324.688 300.864,324.688 C300.288,324.688 299.778667,324.578667 299.336,324.36 C298.893333,324.141333 298.474667,323.818667 298.08,323.392 L298.08,323.392 L297.184,324.416 C297.717333,324.938667 298.28,325.306667 298.872,325.52 C299.464,325.733333 300.128,325.84 300.864,325.84 Z M301.024,320.944 C300.661333,320.944 300.32,320.874667 300,320.736 C299.68,320.597333 299.4,320.408 299.16,320.168 C298.92,319.928 298.730667,319.645333 298.592,319.32 C298.453333,318.994667 298.384,318.64 298.384,318.256 C298.384,317.861333 298.448,317.496 298.576,317.16 C298.704,316.824 298.882667,316.530667 299.112,316.28 C299.341333,316.029333 299.618667,315.832 299.944,315.688 C300.269333,315.544 300.629333,315.472 301.024,315.472 C301.418667,315.472 301.781333,315.538667 302.112,315.672 C302.442667,315.805333 302.725333,315.994667 302.96,316.24 C303.194667,316.485333 303.376,316.776 303.504,317.112 C303.632,317.448 303.696,317.818667 303.696,318.224 C303.696,318.586667 303.637333,318.930667 303.52,319.256 C303.402667,319.581333 303.229333,319.869333 303,320.12 C302.770667,320.370667 302.490667,320.570667 302.16,320.72 C301.829333,320.869333 301.450667,320.944 301.024,320.944 Z M310.608,322.192 C311.312,322.192 311.930667,322.077333 312.464,321.848 C312.997333,321.618667 313.488,321.216 313.936,320.64 L313.936,320.64 L312.992,319.904 C312.693333,320.277333 312.357333,320.56 311.984,320.752 C311.610667,320.944 311.152,321.04 310.608,321.04 C310.266667,321.04 309.952,320.976 309.664,320.848 C309.376,320.72 309.125333,320.546667 308.912,320.328 C308.698667,320.109333 308.525333,319.853333 308.392,319.56 C308.258667,319.266667 308.181333,318.96 308.16,318.64 L308.16,318.64 L314.208,318.64 L314.208,318.24 C314.208,317.621333 314.122667,317.069333 313.952,316.584 C313.781333,316.098667 313.538667,315.688 313.224,315.352 C312.909333,315.016 312.533333,314.76 312.096,314.584 C311.658667,314.408 311.178667,314.32 310.656,314.32 C310.101333,314.32 309.589333,314.416 309.12,314.608 C308.650667,314.8 308.245333,315.069333 307.904,315.416 C307.562667,315.762667 307.296,316.178667 307.104,316.664 C306.912,317.149333 306.816,317.68 306.816,318.256 C306.816,318.8 306.904,319.312 307.08,319.792 C307.256,320.272 307.506667,320.688 307.832,321.04 C308.157333,321.392 308.554667,321.672 309.024,321.88 C309.493333,322.088 310.021333,322.192 310.608,322.192 Z M312.864,317.584 L308.16,317.584 C308.245333,316.944 308.501333,316.432 308.928,316.048 C309.354667,315.664 309.914667,315.472 310.608,315.472 C311.301333,315.472 311.845333,315.664 312.24,316.048 C312.634667,316.432 312.842667,316.944 312.864,317.584 L312.864,317.584 Z" id="ClickToUploadImage" fill="#22232B" fill-rule="nonzero" opacity="0.25"></path>
            </g>
        </g>
    </g>
</svg>