<?xml version="1.0" encoding="UTF-8"?>
<svg width="71px" height="71px" viewBox="0 0 71 71" version="1.1" xmlns="http://www.w3.org/2000/svg" xmlns:xlink="http://www.w3.org/1999/xlink">
    <!-- Generator: Sketch 63.1 (92452) - https://sketch.com -->
    <title>Logo</title>
    <desc>Created with Sketch.</desc>
    <g id="Page-1" stroke="none" stroke-width="1" fill="none" fill-rule="evenodd">
        <g id="Ecommerce---Desktop-Copy-4" transform="translate(-20.000000, 0.000000)">
            <g id="Top-Nav" transform="translate(20.000000, 0.000000)">
                <g id="Logo">
                    <g id="1.-🎨-Color-/-_Palette-/-Caution-/-_Default" fill="#FFB300">
                        <rect id="Rectangle-Copy-8" x="0" y="0" width="71" height="71"></rect>
                    </g>
                    <g id="Group-7" transform="translate(20.000000, 17.000000)" fill="#FFFFFF">
                        <path d="M15.6657298,0.784712969 C12.6747908,2.50596789 9.7998284,4.16019088 6.92519639,5.81474326 C5.7282591,6.50350875 4.52537429,7.18239237 3.33901035,7.88878051 C3.02627021,8.07505353 2.71353008,8.3061243 2.49033307,8.58742785 C1.98182058,9.22876042 2.15975039,10.0283674 2.98182906,10.5246014 C4.66348879,11.5397976 6.40429324,11.5098226 8.09470903,10.5542469 C11.2345011,8.77930059 14.3503378,6.96219164 17.476748,5.16352884 C18.4594095,4.59828657 19.4204287,3.98972883 20.4318366,3.48147195 C22.9091416,2.23619318 25.4368353,2.22351146 27.9447039,3.38215928 C29.1837694,3.95481294 29.8163537,4.88766031 29.8049543,6.35824544 C29.7534091,13.0886141 29.7428358,19.8198062 29.8125,26.5496807 C29.8279183,28.0759336 29.1751786,28.9715593 27.9513123,29.6697126 C24.6036876,31.5798757 21.2684537,33.5112848 17.9280982,35.4342943 C17.4993816,35.6810113 17.0349798,35.8824365 16.6500434,36.184492 C15.9867304,36.7052659 15.4081694,36.6700206 14.7289963,36.1889388 C14.3394341,35.9129056 14.1395315,35.6823289 14.1410184,35.177366 C14.1600174,28.4262455 14.1593565,21.6749603 14.1420096,14.9238397 C14.1408532,14.4266176 14.2982971,14.1668894 14.7304831,13.9208312 C18.5995065,11.7186592 22.4538263,9.49046495 26.3109547,7.26737635 C26.9613815,6.89235985 27.6679793,6.51487288 27.572819,5.61480034 C27.4760067,4.69875213 26.7363672,4.33098232 25.9750853,4.08854741 C24.5409083,3.63184088 23.1262259,3.68223836 21.7911741,4.44874113 C17.8228603,6.72650934 13.8618156,9.01712396 9.88524132,11.2807282 C9.48741868,11.5071874 9.43124771,11.7784444 9.43174334,12.1755304 C9.44066461,18.9472381 9.43091729,25.7191105 9.45222922,32.4908183 C9.45388131,33.0158743 9.277934,33.2640736 8.81237578,33.4386531 C6.5906487,34.2713643 4.37420829,34.3021628 2.1787494,33.3849617 C0.742755062,32.7849682 -0.0175355427,31.8099583 0.000307000828,30.1106081 C0.0711815487,23.3393945 0.0477219081,16.5671927 0.0125324473,9.79548496 C0.00641972407,8.59862729 0.486020685,7.7713511 1.46471724,7.20330897 C5.58254499,4.81371107 9.71012006,2.44107703 13.8405037,0.0728898158 C13.9728359,-0.00303579128 14.2034673,-0.0267522499 14.3351386,0.0359975468 C14.7574122,0.237587445 15.154574,0.491221794 15.6657298,0.784712969" id="Fill-1"></path>
                        <path d="M12.7880444,34.875 C12.6671514,34.8528722 12.6471919,34.8517163 12.6291797,34.8456064 C11.5825226,34.4857822 11.2373691,33.8156736 11.2503509,32.6346444 C11.321913,26.135681 11.2896208,19.6355617 11.274205,13.1359378 C11.273069,12.644668 11.4134347,12.3674101 11.8426452,12.1178946 C15.6596171,9.89966675 19.4634449,7.65782493 23.2667859,5.41532258 C23.7623659,5.12303767 24.2684936,4.93131858 24.8213557,5.17076102 C25.0224112,5.25778597 25.2833453,5.45313798 25.3104448,5.63148132 C25.335597,5.79661404 25.1249674,6.07189028 24.9479282,6.1830246 C24.0687362,6.73440276 23.1666638,7.24796552 22.2723805,7.77391324 C19.2732617,9.53802609 16.2786864,11.3097351 13.2691821,13.0550228 C12.8970914,13.2706861 12.7786326,13.5055048 12.7794439,13.9267584 C12.7916144,20.6534398 12.7880444,27.3801212 12.7880444,34.1068026 L12.7880444,34.875 Z" id="Fill-3"></path>
                        <path d="M18.5625,2.43074775 C18.4170992,2.51774045 18.2483099,2.62255289 18.0757589,2.72120942 C14.2562478,4.90655682 10.4429518,7.10324405 6.60626745,9.25910789 C6.19361697,9.49092643 5.64734168,9.54568162 5.15863791,9.56236737 C4.94454379,9.56965726 4.71981856,9.27465966 4.5,9.11687401 C4.65406926,8.90660115 4.76168876,8.61743546 4.96907711,8.49755725 C8.54963364,6.42803812 12.1424568,4.37941668 15.7324996,2.32609731 C15.7854915,2.29580376 15.8460071,2.27393409 15.8908213,2.23456868 C16.8273399,1.41210694 17.711848,1.5489949 18.5625,2.43074775" id="Fill-5"></path>
                    </g>
                </g>
            </g>
        </g>
    </g>
</svg>