<?xml version="1.0" encoding="UTF-8"?>
<svg width="200px" height="250px" viewBox="0 0 200 250" version="1.1" xmlns="http://www.w3.org/2000/svg" xmlns:xlink="http://www.w3.org/1999/xlink">
    <!-- Generator: Sketch 63.1 (92452) - https://sketch.com -->
    <title>Placeholder_SM</title>
    <desc>Created with Sketch.</desc>
    <g id="Placeholder_SM" stroke="none" stroke-width="1" fill="none" fill-rule="evenodd">
        <g id="Placeholders-/-Document">
            <g id="Picture">
                <rect id="Frame" fill="#E8E9E9" opacity="0.5" x="0" y="0" width="200" height="250"></rect>
                <path d="M102.053988,113.609668 C95.9341632,117.140447 90.0516405,120.533725 84.1697939,123.927678 C81.7207146,125.340531 79.259466,126.733113 76.8320212,128.182114 C76.1921168,128.564212 75.5522125,129.038204 75.0955243,129.615237 C74.0550459,130.930791 74.4191119,132.57101 76.1011848,133.588926 C79.5420651,135.67138 83.1039627,135.609892 86.5627589,133.649737 C92.9871552,130.008822 99.3625361,126.281419 105.759551,122.591854 C107.770196,121.432383 109.736559,120.184059 111.806022,119.141481 C116.874889,116.587063 122.046858,116.561049 127.178262,118.937763 C129.713541,120.112437 131.007885,122.02597 130.984561,125.042555 C130.879093,138.848439 130.857459,152.656013 131,166.460883 C131.031548,169.591659 129.695963,171.42884 127.191784,172.860949 C120.342137,176.779232 113.517842,180.741097 106.683069,184.685732 C105.805862,185.191818 104.85564,185.604998 104.068013,186.224599 C102.710794,187.292853 101.526988,187.220555 100.137317,186.233721 C99.3402257,185.667499 98.9312007,185.194521 98.934243,184.158699 C98.9731173,170.310247 98.9717651,156.461457 98.9362712,142.613005 C98.933905,141.593062 99.2560544,141.060286 100.14036,140.555551 C108.056852,136.038275 115.943259,131.46762 123.835413,126.907439 C125.166265,126.138174 126.61205,125.363842 126.41734,123.517539 C126.219251,121.638466 124.705858,120.884066 123.148183,120.386764 C120.213682,119.44993 117.31907,119.553309 114.587392,121.125623 C106.467739,125.797968 98.3629602,130.496665 90.2264057,135.139955 C89.4124122,135.604487 89.2974796,136.160912 89.2984937,136.975447 C89.3167477,150.866129 89.2968035,164.75715 89.3404103,178.647832 C89.3437907,179.72487 88.9837811,180.233997 88.0311924,180.592109 C83.4852686,182.300235 78.950162,182.363411 74.4579862,180.481973 C71.5197672,179.251217 69.9641201,177.251196 70.0006282,173.76535 C70.1456461,159.875681 70.0976448,145.983985 70.0256429,132.093302 C70.0131355,129.63821 70.9944574,127.941233 72.9969896,126.776018 C81.4225658,121.874279 89.8680863,117.007337 98.3193534,112.149518 C98.5901212,111.993773 99.0620211,111.945124 99.3314367,112.073841 C100.19546,112.487359 101.008101,113.007634 102.053988,113.609668" id="Fill-1" fill="#DEE0E0"></path>
                <path d="M32.056,79 L32.056,69.592 L32.088,69.592 L38.648,79 L40.344,79 L40.344,67.672 L39,67.672 L39,77.08 L38.968,77.08 L32.408,67.672 L30.712,67.672 L30.712,79 L32.056,79 Z M46.504,79.192 C47.08,79.192 47.6133333,79.096 48.104,78.904 C48.5946667,78.712 49.016,78.4426667 49.368,78.096 C49.72,77.7493333 49.9973333,77.336 50.2,76.856 C50.4026667,76.376 50.504,75.8426667 50.504,75.256 C50.504,74.6693333 50.4026667,74.136 50.2,73.656 C49.9973333,73.176 49.72,72.7626667 49.368,72.416 C49.016,72.0693333 48.5946667,71.8 48.104,71.608 C47.6133333,71.416 47.08,71.32 46.504,71.32 C45.928,71.32 45.3946667,71.416 44.904,71.608 C44.4133333,71.8 43.992,72.0693333 43.64,72.416 C43.288,72.7626667 43.0106667,73.176 42.808,73.656 C42.6053333,74.136 42.504,74.6693333 42.504,75.256 C42.504,75.8426667 42.6053333,76.376 42.808,76.856 C43.0106667,77.336 43.288,77.7493333 43.64,78.096 C43.992,78.4426667 44.4133333,78.712 44.904,78.904 C45.3946667,79.096 45.928,79.192 46.504,79.192 Z M46.504,78.04 C46.0986667,78.04 45.7333333,77.968 45.408,77.824 C45.0826667,77.68 44.8026667,77.4826667 44.568,77.232 C44.3333333,76.9813333 44.1546667,76.688 44.032,76.352 C43.9093333,76.016 43.848,75.6506667 43.848,75.256 C43.848,74.8613333 43.9093333,74.496 44.032,74.16 C44.1546667,73.824 44.3333333,73.5306667 44.568,73.28 C44.8026667,73.0293333 45.0826667,72.832 45.408,72.688 C45.7333333,72.544 46.0986667,72.472 46.504,72.472 C46.9093333,72.472 47.2746667,72.544 47.6,72.688 C47.9253333,72.832 48.2053333,73.0293333 48.44,73.28 C48.6746667,73.5306667 48.8533333,73.824 48.976,74.16 C49.0986667,74.496 49.16,74.8613333 49.16,75.256 C49.16,75.6506667 49.0986667,76.016 48.976,76.352 C48.8533333,76.688 48.6746667,76.9813333 48.44,77.232 C48.2053333,77.4826667 47.9253333,77.68 47.6,77.824 C47.2746667,77.968 46.9093333,78.04 46.504,78.04 Z M58.456,79 L58.456,67.672 L57.112,67.672 L57.112,79 L58.456,79 Z M62.296,79 L62.296,75.352 C62.296,74.9253333 62.3413333,74.536 62.432,74.184 C62.5226667,73.832 62.6613333,73.528 62.848,73.272 C63.0346667,73.016 63.2746667,72.8186667 63.568,72.68 C63.8613333,72.5413333 64.2106667,72.472 64.616,72.472 C65.128,72.472 65.496,72.6453333 65.72,72.992 C65.944,73.3386667 66.056,73.928 66.056,74.76 L66.056,74.76 L66.056,79 L67.304,79 L67.304,74.68 C67.304,74.3493333 67.3546667,74.048 67.456,73.776 C67.5573333,73.504 67.696,73.272 67.872,73.08 C68.048,72.888 68.2533333,72.7386667 68.488,72.632 C68.7226667,72.5253333 68.9733333,72.472 69.24,72.472 C69.6026667,72.472 69.9013333,72.5306667 70.136,72.648 C70.3706667,72.7653333 70.5573333,72.92 70.696,73.112 C70.8346667,73.304 70.9306667,73.5226667 70.984,73.768 C71.0373333,74.0133333 71.064,74.264 71.064,74.52 L71.064,74.52 L71.064,79 L72.312,79 L72.312,74.456 C72.312,73.976 72.264,73.5413333 72.168,73.152 C72.072,72.7626667 71.912,72.432 71.688,72.16 C71.464,71.888 71.1706667,71.68 70.808,71.536 C70.4453333,71.392 69.9973333,71.32 69.464,71.32 C68.888,71.32 68.4186667,71.4453333 68.056,71.696 C67.6933333,71.9466667 67.3733333,72.296 67.096,72.744 C67.032,72.616 66.9493333,72.4693333 66.848,72.304 C66.7466667,72.1386667 66.6053333,71.984 66.424,71.84 C66.2426667,71.696 66.016,71.5733333 65.744,71.472 C65.472,71.3706667 65.1333333,71.32 64.728,71.32 C64.4186667,71.32 64.1306667,71.36 63.864,71.44 C63.5973333,71.52 63.3573333,71.6266667 63.144,71.76 C62.9306667,71.8933333 62.7466667,72.0453333 62.592,72.216 C62.4373333,72.3866667 62.3173333,72.5626667 62.232,72.744 L62.232,72.744 L62.2,72.744 C62.2,72.5306667 62.1946667,72.3226667 62.184,72.12 C62.1733333,71.9173333 62.168,71.7146667 62.168,71.512 L62.168,71.512 L60.984,71.512 C60.984,71.7573333 60.9946667,72.0293333 61.016,72.328 C61.0373333,72.6266667 61.048,72.9466667 61.048,73.288 L61.048,73.288 L61.048,79 L62.296,79 Z M77.032,79.192 C77.608,79.192 78.1013333,79.0693333 78.512,78.824 C78.9226667,78.5786667 79.2506667,78.264 79.496,77.88 L79.496,77.88 L79.528,77.88 C79.528,78.04 79.5306667,78.224 79.536,78.432 C79.5413333,78.64 79.5653333,78.8293333 79.608,79 L79.608,79 L80.808,79 C80.776,78.808 80.7493333,78.5973333 80.728,78.368 C80.7066667,78.1386667 80.696,77.9173333 80.696,77.704 L80.696,77.704 L80.696,74.488 C80.696,73.4213333 80.4506667,72.6266667 79.96,72.104 C79.4693333,71.5813333 78.6693333,71.32 77.56,71.32 C77.016,71.32 76.48,71.4133333 75.952,71.6 C75.424,71.7866667 74.968,72.0773333 74.584,72.472 L74.584,72.472 L75.368,73.288 C75.6666667,73.0106667 76.0106667,72.8053333 76.4,72.672 C76.7893333,72.5386667 77.1866667,72.472 77.592,72.472 C78.1786667,72.472 78.6346667,72.6106667 78.96,72.888 C79.2853333,73.1653333 79.448,73.576 79.448,74.12 L79.448,74.12 L79.448,74.344 L78.968,74.344 C78.5093333,74.344 78.0053333,74.3653333 77.456,74.408 C76.9066667,74.4506667 76.3946667,74.5573333 75.92,74.728 C75.4453333,74.8986667 75.048,75.16 74.728,75.512 C74.408,75.864 74.248,76.3493333 74.248,76.968 C74.248,77.3306667 74.3226667,77.6506667 74.472,77.928 C74.6213333,78.2053333 74.8213333,78.4373333 75.072,78.624 C75.3226667,78.8106667 75.616,78.952 75.952,79.048 C76.288,79.144 76.648,79.192 77.032,79.192 Z M77.24,78.136 C76.7706667,78.136 76.3786667,78.0373333 76.064,77.84 C75.7493333,77.6426667 75.592,77.3093333 75.592,76.84 C75.592,76.328 75.8266667,75.96 76.296,75.736 C76.7653333,75.512 77.4,75.4 78.2,75.4 L78.2,75.4 L79.448,75.4 L79.448,75.88 C79.4373333,76.1893333 79.384,76.48 79.288,76.752 C79.192,77.024 79.0533333,77.2613333 78.872,77.464 C78.6906667,77.6666667 78.464,77.8293333 78.192,77.952 C77.92,78.0746667 77.6026667,78.136 77.24,78.136 Z M86.376,82.84 C87.6986667,82.84 88.7093333,82.4853333 89.408,81.776 C90.1066667,81.0666667 90.456,80.0293333 90.456,78.664 L90.456,78.664 L90.456,71.512 L89.208,71.512 L89.208,72.792 L89.176,72.792 C89.048,72.5466667 88.888,72.3306667 88.696,72.144 C88.504,71.9573333 88.288,71.8026667 88.048,71.68 C87.808,71.5573333 87.56,71.4666667 87.304,71.408 C87.048,71.3493333 86.792,71.32 86.536,71.32 C85.9386667,71.32 85.3946667,71.4106667 84.904,71.592 C84.4133333,71.7733333 83.9946667,72.032 83.648,72.368 C83.3013333,72.704 83.032,73.1173333 82.84,73.608 C82.648,74.0986667 82.552,74.648 82.552,75.256 C82.552,75.8106667 82.648,76.3226667 82.84,76.792 C83.032,77.2613333 83.304,77.6666667 83.656,78.008 C84.008,78.3493333 84.4293333,78.616 84.92,78.808 C85.4106667,79 85.9493333,79.096 86.536,79.096 C87.0373333,79.096 87.528,78.984 88.008,78.76 C88.488,78.536 88.8773333,78.184 89.176,77.704 L89.176,77.704 L89.208,77.704 L89.208,78.664 C89.208,79.0586667 89.1653333,79.4373333 89.08,79.8 C88.9946667,80.1626667 88.8453333,80.4853333 88.632,80.768 C88.4186667,81.0506667 88.128,81.2746667 87.76,81.44 C87.392,81.6053333 86.9306667,81.688 86.376,81.688 C85.8,81.688 85.2906667,81.5786667 84.848,81.36 C84.4053333,81.1413333 83.9866667,80.8186667 83.592,80.392 L83.592,80.392 L82.696,81.416 C83.2293333,81.9386667 83.792,82.3066667 84.384,82.52 C84.976,82.7333333 85.64,82.84 86.376,82.84 Z M86.536,77.944 C86.1733333,77.944 85.832,77.8746667 85.512,77.736 C85.192,77.5973333 84.912,77.408 84.672,77.168 C84.432,76.928 84.2426667,76.6453333 84.104,76.32 C83.9653333,75.9946667 83.896,75.64 83.896,75.256 C83.896,74.8613333 83.96,74.496 84.088,74.16 C84.216,73.824 84.3946667,73.5306667 84.624,73.28 C84.8533333,73.0293333 85.1306667,72.832 85.456,72.688 C85.7813333,72.544 86.1413333,72.472 86.536,72.472 C86.9306667,72.472 87.2933333,72.5386667 87.624,72.672 C87.9546667,72.8053333 88.2373333,72.9946667 88.472,73.24 C88.7066667,73.4853333 88.888,73.776 89.016,74.112 C89.144,74.448 89.208,74.8186667 89.208,75.224 C89.208,75.5866667 89.1493333,75.9306667 89.032,76.256 C88.9146667,76.5813333 88.7413333,76.8693333 88.512,77.12 C88.2826667,77.3706667 88.0026667,77.5706667 87.672,77.72 C87.3413333,77.8693333 86.9626667,77.944 86.536,77.944 Z M96.12,79.192 C96.824,79.192 97.4426667,79.0773333 97.976,78.848 C98.5093333,78.6186667 99,78.216 99.448,77.64 L99.448,77.64 L98.504,76.904 C98.2053333,77.2773333 97.8693333,77.56 97.496,77.752 C97.1226667,77.944 96.664,78.04 96.12,78.04 C95.7786667,78.04 95.464,77.976 95.176,77.848 C94.888,77.72 94.6373333,77.5466667 94.424,77.328 C94.2106667,77.1093333 94.0373333,76.8533333 93.904,76.56 C93.7706667,76.2666667 93.6933333,75.96 93.672,75.64 L93.672,75.64 L99.72,75.64 L99.72,75.24 C99.72,74.6213333 99.6346667,74.0693333 99.464,73.584 C99.2933333,73.0986667 99.0506667,72.688 98.736,72.352 C98.4213333,72.016 98.0453333,71.76 97.608,71.584 C97.1706667,71.408 96.6906667,71.32 96.168,71.32 C95.6133333,71.32 95.1013333,71.416 94.632,71.608 C94.1626667,71.8 93.7573333,72.0693333 93.416,72.416 C93.0746667,72.7626667 92.808,73.1786667 92.616,73.664 C92.424,74.1493333 92.328,74.68 92.328,75.256 C92.328,75.8 92.416,76.312 92.592,76.792 C92.768,77.272 93.0186667,77.688 93.344,78.04 C93.6693333,78.392 94.0666667,78.672 94.536,78.88 C95.0053333,79.088 95.5333333,79.192 96.12,79.192 Z M98.376,74.584 L93.672,74.584 C93.7573333,73.944 94.0133333,73.432 94.44,73.048 C94.8666667,72.664 95.4266667,72.472 96.12,72.472 C96.8133333,72.472 97.3573333,72.664 97.752,73.048 C98.1466667,73.432 98.3546667,73.944 98.376,74.584 L98.376,74.584 Z M106.536,79 L107.704,76.216 L113.368,76.216 L114.52,79 L116.088,79 L111.272,67.672 L110.008,67.672 L105.016,79 L106.536,79 Z M112.856,74.968 L108.232,74.968 L110.584,69.4 L110.616,69.4 L112.856,74.968 Z M120.776,79 L123.736,71.512 L122.392,71.512 L120.168,77.384 L120.136,77.384 L117.8,71.512 L116.344,71.512 L119.4,79 L120.776,79 Z M127.432,79.192 C128.008,79.192 128.501333,79.0693333 128.912,78.824 C129.322667,78.5786667 129.650667,78.264 129.896,77.88 L129.896,77.88 L129.928,77.88 C129.928,78.04 129.930667,78.224 129.936,78.432 C129.941333,78.64 129.965333,78.8293333 130.008,79 L130.008,79 L131.208,79 C131.176,78.808 131.149333,78.5973333 131.128,78.368 C131.106667,78.1386667 131.096,77.9173333 131.096,77.704 L131.096,77.704 L131.096,74.488 C131.096,73.4213333 130.850667,72.6266667 130.36,72.104 C129.869333,71.5813333 129.069333,71.32 127.96,71.32 C127.416,71.32 126.88,71.4133333 126.352,71.6 C125.824,71.7866667 125.368,72.0773333 124.984,72.472 L124.984,72.472 L125.768,73.288 C126.066667,73.0106667 126.410667,72.8053333 126.8,72.672 C127.189333,72.5386667 127.586667,72.472 127.992,72.472 C128.578667,72.472 129.034667,72.6106667 129.36,72.888 C129.685333,73.1653333 129.848,73.576 129.848,74.12 L129.848,74.12 L129.848,74.344 L129.368,74.344 C128.909333,74.344 128.405333,74.3653333 127.856,74.408 C127.306667,74.4506667 126.794667,74.5573333 126.32,74.728 C125.845333,74.8986667 125.448,75.16 125.128,75.512 C124.808,75.864 124.648,76.3493333 124.648,76.968 C124.648,77.3306667 124.722667,77.6506667 124.872,77.928 C125.021333,78.2053333 125.221333,78.4373333 125.472,78.624 C125.722667,78.8106667 126.016,78.952 126.352,79.048 C126.688,79.144 127.048,79.192 127.432,79.192 Z M127.64,78.136 C127.170667,78.136 126.778667,78.0373333 126.464,77.84 C126.149333,77.6426667 125.992,77.3093333 125.992,76.84 C125.992,76.328 126.226667,75.96 126.696,75.736 C127.165333,75.512 127.8,75.4 128.6,75.4 L128.6,75.4 L129.848,75.4 L129.848,75.88 C129.837333,76.1893333 129.784,76.48 129.688,76.752 C129.592,77.024 129.453333,77.2613333 129.272,77.464 C129.090667,77.6666667 128.864,77.8293333 128.592,77.952 C128.32,78.0746667 128.002667,78.136 127.64,78.136 Z M134.12,69.496 C134.386667,69.496 134.605333,69.4106667 134.776,69.24 C134.946667,69.0693333 135.032,68.8506667 135.032,68.584 C135.032,68.3386667 134.944,68.1253333 134.768,67.944 C134.592,67.7626667 134.376,67.672 134.12,67.672 C133.864,67.672 133.648,67.7626667 133.472,67.944 C133.296,68.1253333 133.208,68.3386667 133.208,68.584 C133.208,68.8506667 133.293333,69.0693333 133.464,69.24 C133.634667,69.4106667 133.853333,69.496 134.12,69.496 Z M134.744,79 L134.744,71.512 L133.496,71.512 L133.496,79 L134.744,79 Z M138.584,79 L138.584,66.904 L137.336,66.904 L137.336,79 L138.584,79 Z M143.416,79.192 C143.992,79.192 144.485333,79.0693333 144.896,78.824 C145.306667,78.5786667 145.634667,78.264 145.88,77.88 L145.88,77.88 L145.912,77.88 C145.912,78.04 145.914667,78.224 145.92,78.432 C145.925333,78.64 145.949333,78.8293333 145.992,79 L145.992,79 L147.192,79 C147.16,78.808 147.133333,78.5973333 147.112,78.368 C147.090667,78.1386667 147.08,77.9173333 147.08,77.704 L147.08,77.704 L147.08,74.488 C147.08,73.4213333 146.834667,72.6266667 146.344,72.104 C145.853333,71.5813333 145.053333,71.32 143.944,71.32 C143.4,71.32 142.864,71.4133333 142.336,71.6 C141.808,71.7866667 141.352,72.0773333 140.968,72.472 L140.968,72.472 L141.752,73.288 C142.050667,73.0106667 142.394667,72.8053333 142.784,72.672 C143.173333,72.5386667 143.570667,72.472 143.976,72.472 C144.562667,72.472 145.018667,72.6106667 145.344,72.888 C145.669333,73.1653333 145.832,73.576 145.832,74.12 L145.832,74.12 L145.832,74.344 L145.352,74.344 C144.893333,74.344 144.389333,74.3653333 143.84,74.408 C143.290667,74.4506667 142.778667,74.5573333 142.304,74.728 C141.829333,74.8986667 141.432,75.16 141.112,75.512 C140.792,75.864 140.632,76.3493333 140.632,76.968 C140.632,77.3306667 140.706667,77.6506667 140.856,77.928 C141.005333,78.2053333 141.205333,78.4373333 141.456,78.624 C141.706667,78.8106667 142,78.952 142.336,79.048 C142.672,79.144 143.032,79.192 143.416,79.192 Z M143.624,78.136 C143.154667,78.136 142.762667,78.0373333 142.448,77.84 C142.133333,77.6426667 141.976,77.3093333 141.976,76.84 C141.976,76.328 142.210667,75.96 142.68,75.736 C143.149333,75.512 143.784,75.4 144.584,75.4 L144.584,75.4 L145.832,75.4 L145.832,75.88 C145.821333,76.1893333 145.768,76.48 145.672,76.752 C145.576,77.024 145.437333,77.2613333 145.256,77.464 C145.074667,77.6666667 144.848,77.8293333 144.576,77.952 C144.304,78.0746667 143.986667,78.136 143.624,78.136 Z M153.464,79.192 C153.986667,79.192 154.477333,79.0933333 154.936,78.896 C155.394667,78.6986667 155.792,78.424 156.128,78.072 C156.464,77.72 156.728,77.304 156.92,76.824 C157.112,76.344 157.208,75.8213333 157.208,75.256 C157.208,74.6906667 157.112,74.168 156.92,73.688 C156.728,73.208 156.461333,72.792 156.12,72.44 C155.778667,72.088 155.365333,71.8133333 154.88,71.616 C154.394667,71.4186667 153.858667,71.32 153.272,71.32 C152.728,71.32 152.229333,71.432 151.776,71.656 C151.322667,71.88 150.925333,72.1946667 150.584,72.6 L150.584,72.6 L150.552,72.6 L150.552,66.904 L149.304,66.904 L149.304,79 L150.552,79 L150.552,77.672 L150.584,77.672 C150.818667,78.0986667 151.189333,78.4586667 151.696,78.752 C152.202667,79.0453333 152.792,79.192 153.464,79.192 Z M153.208,78.04 C152.802667,78.04 152.437333,77.968 152.112,77.824 C151.786667,77.68 151.506667,77.4826667 151.272,77.232 C151.037333,76.9813333 150.858667,76.688 150.736,76.352 C150.613333,76.016 150.552,75.6506667 150.552,75.256 C150.552,74.8613333 150.613333,74.496 150.736,74.16 C150.858667,73.824 151.037333,73.5306667 151.272,73.28 C151.506667,73.0293333 151.786667,72.832 152.112,72.688 C152.437333,72.544 152.802667,72.472 153.208,72.472 C153.613333,72.472 153.978667,72.544 154.304,72.688 C154.629333,72.832 154.909333,73.0293333 155.144,73.28 C155.378667,73.5306667 155.557333,73.824 155.68,74.16 C155.802667,74.496 155.864,74.8613333 155.864,75.256 C155.864,75.6506667 155.802667,76.016 155.68,76.352 C155.557333,76.688 155.378667,76.9813333 155.144,77.232 C154.909333,77.4826667 154.629333,77.68 154.304,77.824 C153.978667,77.968 153.613333,78.04 153.208,78.04 Z M160.504,79 L160.504,66.904 L159.256,66.904 L159.256,79 L160.504,79 Z M166.344,79.192 C167.048,79.192 167.666667,79.0773333 168.2,78.848 C168.733333,78.6186667 169.224,78.216 169.672,77.64 L169.672,77.64 L168.728,76.904 C168.429333,77.2773333 168.093333,77.56 167.72,77.752 C167.346667,77.944 166.888,78.04 166.344,78.04 C166.002667,78.04 165.688,77.976 165.4,77.848 C165.112,77.72 164.861333,77.5466667 164.648,77.328 C164.434667,77.1093333 164.261333,76.8533333 164.128,76.56 C163.994667,76.2666667 163.917333,75.96 163.896,75.64 L163.896,75.64 L169.944,75.64 L169.944,75.24 C169.944,74.6213333 169.858667,74.0693333 169.688,73.584 C169.517333,73.0986667 169.274667,72.688 168.96,72.352 C168.645333,72.016 168.269333,71.76 167.832,71.584 C167.394667,71.408 166.914667,71.32 166.392,71.32 C165.837333,71.32 165.325333,71.416 164.856,71.608 C164.386667,71.8 163.981333,72.0693333 163.64,72.416 C163.298667,72.7626667 163.032,73.1786667 162.84,73.664 C162.648,74.1493333 162.552,74.68 162.552,75.256 C162.552,75.8 162.64,76.312 162.816,76.792 C162.992,77.272 163.242667,77.688 163.568,78.04 C163.893333,78.392 164.290667,78.672 164.76,78.88 C165.229333,79.088 165.757333,79.192 166.344,79.192 Z M168.6,74.584 L163.896,74.584 C163.981333,73.944 164.237333,73.432 164.664,73.048 C165.090667,72.664 165.650667,72.472 166.344,72.472 C167.037333,72.472 167.581333,72.664 167.976,73.048 C168.370667,73.432 168.578667,73.944 168.6,74.584 L168.6,74.584 Z" id="NoImageAvailable" fill="#22232B" fill-rule="nonzero" opacity="0.25"></path>
            </g>
        </g>
    </g>
</svg>